HIERARCHY
ROOT Bip001_Pelvis
{
  OFFSET 7.937 94.8971 -8.5489
  CHANNELS 6 Xposition Yposition Zposition Zrotation Xrotation Yrotation
  JOINT Bip001_Spine
  {
    OFFSET 1.44608e-005 10.4157 -0.0118244
    CHANNELS 3 Zrotation Xrotation Yrotation
    JOINT Bip001_L_Thigh
    {
      OFFSET 11.2582 -10.4157 0.0118432
      CHANNELS 3 Zrotation Xrotation Yrotation
      JOINT Bip001_L_Calf
      {
        OFFSET -0.720717 -44.8687 0.366937
        CHANNELS 3 Zrotation Xrotation Yrotation
        JOINT Bip001_L_Foot
        {
          OFFSET -0.664439 -41.3745 -3.62995
          CHANNELS 3 Zrotation Xrotation Yrotation
          JOINT Bip001_L_Toe0
          {
            OFFSET 0.0541047 -10.4146 13.4033
            CHANNELS 3 Zrotation Xrotation Yrotation
            End Site
            {
              OFFSET -1.04503e-005 0 7.70137
            }
          }
        }
      }
    }
    JOINT Bip001_R_Thigh
    {
      OFFSET -11.2582 -10.4156 0.0118122
      CHANNELS 3 Zrotation Xrotation Yrotation
      JOINT Bip001_R_Calf
      {
        OFFSET 0.72059 -44.8687 0.36676
        CHANNELS 3 Zrotation Xrotation Yrotation
        JOINT Bip001_R_Foot
        {
          OFFSET 0.664321 -41.3745 -3.62979
          CHANNELS 3 Zrotation Xrotation Yrotation
          JOINT Bip001_R_Toe0
          {
            OFFSET -0.05417 -10.4146 13.4033
            CHANNELS 3 Zrotation Xrotation Yrotation
            End Site
            {
              OFFSET -1.04873e-005 0 7.70137
            }
          }
        }
      }
    }
    JOINT Bip001_Spine1
    {
      OFFSET 1.90638e-005 14.8539 1.10727
      CHANNELS 3 Zrotation Xrotation Yrotation
      JOINT Bip001_Spine2
      {
        OFFSET 2.28934e-005 14.7848 -1.7233
        CHANNELS 3 Zrotation Xrotation Yrotation
        JOINT Bip001_Neck
        {
          OFFSET 2.24514e-005 15.6905 -0.498826
          CHANNELS 3 Zrotation Xrotation Yrotation
          JOINT Bip001_L_Clavicle
          {
            OFFSET 6.17691 -0.000591152 0.00852867
            CHANNELS 3 Zrotation Xrotation Yrotation
            JOINT Bip001_L_UpperArm
            {
              OFFSET 11.773 -0.0611878 0.00197697
              CHANNELS 3 Zrotation Xrotation Yrotation
              JOINT Bip001_L_Forearm
              {
                OFFSET 26.4515 0.0817568 -2.19579
                CHANNELS 3 Zrotation Xrotation Yrotation
                JOINT Bip001_L_Hand
                {
                  OFFSET 32.8677 0.156744 1.67112
                  CHANNELS 3 Zrotation Xrotation Yrotation
                  JOINT Bip001_L_Finger0
                  {
                    OFFSET 6.16268 -2.25226 6.01674
                    CHANNELS 3 Zrotation Xrotation Yrotation
                    End Site
                    {
                      OFFSET 4.30499 -1.46662 0.618148
                    }
                  }
                  JOINT Bip001_L_Finger1
                  {
                    OFFSET 11.2957 -0.718374 -0.201963
                    CHANNELS 3 Zrotation Xrotation Yrotation
                    End Site
                    {
                      OFFSET 6.31952 -0.405163 -0.0802303
                    }
                  }
                }
              }
            }
          }
          JOINT Bip001_R_Clavicle
          {
            OFFSET -6.17691 -0.000574027 0.00851165
            CHANNELS 3 Zrotation Xrotation Yrotation
            JOINT Bip001_R_UpperArm
            {
              OFFSET -11.773 -0.0611516 0.00194365
              CHANNELS 3 Zrotation Xrotation Yrotation
              JOINT Bip001_R_Forearm
              {
                OFFSET -26.4514 0.0822334 -2.19736
                CHANNELS 3 Zrotation Xrotation Yrotation
                JOINT Bip001_R_Hand
                {
                  OFFSET -32.8677 0.156817 1.67144
                  CHANNELS 3 Zrotation Xrotation Yrotation
                  JOINT Bip001_R_Finger0
                  {
                    OFFSET -6.1627 -2.25224 6.0167
                    CHANNELS 3 Zrotation Xrotation Yrotation
                    End Site
                    {
                      OFFSET -4.30499 -1.46662 0.618134
                    }
                  }
                  JOINT Bip001_R_Finger1
                  {
                    OFFSET -11.2958 -0.718344 -0.201994
                    CHANNELS 3 Zrotation Xrotation Yrotation
                    End Site
                    {
                      OFFSET -6.31952 -0.405146 -0.0802475
                    }
                  }
                }
              }
            }
          }
          JOINT Bip001_Head
          {
            OFFSET 1.11782e-005 11.4912 2.09908
            CHANNELS 3 Zrotation Xrotation Yrotation
            End Site
            {
              OFFSET 2.95144e-005 21.2823 -2.83069e-005
            }
          }
        }
      }
    }
  }
}
MOTION
Frames:	9
Frame Time:	0.04
6.39379 95.3609 -8.19248 -1.3319 -3.14802 -5.56898 0.23782 1.18233 -0.670666 7.64262 -4.72173 11.9099 -0.905495 16.0926 1.16688 -4.57413 -7.75193 0.823194 0.76158 -9.70994 0.960397 -6.01852 -6.03347 2.70292 -0.0766369 15.7 3.95925 0.766659 -7.87227 -6.77316 -1.29695 -11.4051 0.231478 0.298807 2.36286 -1.35549 0.298808 2.36286 -1.3555 1.74605 -0.883013 1.98956 -27.5133 8.43225 -18.068 -54.3773 36.5806 9.72726 14.0664 -2.34659 -34.3797 4.99541 -0.013635 -3.06961 8.82781e-032 3.18055e-015 -1.59028e-015 1.32417e-031 4.77083e-015 -1.59028e-015 32.3731 4.79192 6.64749 50.3563 16.7181 -21.2046 15.7299 -45.2441 38.8001 7.70514 -2.79218 -26.084 0 0 -0 -7.95139e-016 0 -0 -5.05777 -2.03374 3.50277 
6.72049 95.1648 -8.07047 -1.23481 -3.50877 -6.62121 0.191435 1.22808 -0.965883 7.37482 -4.55187 12.907 -0.6736 17.1184 1.00801 -4.49853 -8.64347 1.0364 0.762132 -9.64537 1.15384 -6.1484 -6.60847 3.42091 -0.368525 17.076 4.80531 0.819937 -8.51794 -6.67518 -1.15742 -11.4052 0.0294995 0.231107 2.45261 -1.94374 0.230494 2.45263 -1.94373 2.23277 -0.355423 3.04645 -27.0847 8.25108 -19.1673 -55.0988 36.9779 10.4518 12.3106 -5.48432 -35.0034 5.20459 -0.292852 -4.37791 9.54166e-015 0 -1.59028e-015 6.36111e-015 -1.59028e-015 -1.59028e-015 31.2537 3.43664 5.21627 47.2824 9.47777 -23.387 22.5242 -44.5736 50.7817 4.60242 -2.08849 -25.0116 -4.41391e-032 6.36111e-015 3.97569e-016 7.95139e-016 3.18056e-015 7.95139e-016 -5.26275 -2.46198 4.72189 
7.17563 94.8044 -8.07657 -1.1676 -3.59399 -7.73156 0.222982 1.21025 -1.24345 7.0228 -5.21445 12.8639 -0.578522 19.1693 0.398692 -4.27967 -10.0997 2.63195 0.767535 -9.50905 1.54727 -6.37086 -7.90917 3.70783 -0.744286 19.275 5.92622 0.851213 -9.47549 -6.37156 -0.954101 -11.4262 -0.157039 0.310718 2.41713 -2.49915 0.309463 2.41728 -2.49924 2.37788 0.265949 3.95976 -26.7494 8.04066 -20.3177 -56.041 37.4377 11.7718 12.2533 -6.22223 -34.8814 5.7613 -0.451221 -4.1046 -6.36111e-015 -3.18055e-015 1.59028e-015 -3.18055e-015 -4.77083e-015 1.59028e-015 30.4289 2.10308 3.96538 42.2187 -1.92567 -25.8804 23.6347 -36.1064 61.8929 -0.882519 -0.412203 -25.7604 2.48481e-015 9.54166e-015 -9.93923e-016 2.18663e-015 6.36111e-015 -9.93923e-016 -5.38173 -2.97757 5.68656 
7.62905 94.3226 -7.96271 -1.53914 -4.07897 -9.04834 0.402068 1.30752 -1.48383 7.07943 -6.0018 11.8193 -1.16235 22.4629 1.28673 -3.50855 -12.1826 3.99503 0.201709 -9.53862 1.99739 -6.3208 -8.86993 2.93315 -1.78383 21.5295 7.16975 1.28587 -10.5148 -4.87523 -0.802479 -11.4775 -0.201697 0.57296 2.60755 -2.98296 0.572962 2.60755 -2.98297 2.05193 0.595465 4.73228 -26.1234 7.92074 -20.9035 -57.0343 37.1335 13.7682 12.9687 -5.53601 -35.2872 3.00045 -0.540761 -4.67999 4.41391e-032 3.18055e-015 -7.95139e-016 0 4.77083e-015 -0 29.8277 1.08165 2.69129 34.4345 -15.6376 -28.2301 18.368 -21.6641 69.878 -4.80805 1.58867 -25.7112 1.76556e-031 1.27222e-014 -7.95139e-016 7.95139e-016 1.27222e-014 -0 -5.45962 -3.24713 6.36551 
8.08954 93.5533 -7.896 -2.20663 -4.34661 -10.4628 0.595816 1.39967 -1.60904 7.62389 -7.56067 11.8819 -1.52094 27.1379 0.644431 -2.36713 -14.9589 5.5627 -0.494006 -9.61434 2.76563 -5.89265 -10.4815 2.83993 -2.79584 24.7343 8.01637 1.73051 -12.0092 -3.60633 -0.666809 -11.524 -0.2322 0.825093 2.78779 -3.23484 0.825094 2.78788 -3.23486 1.99587 0.44458 5.0856 -25.3677 7.95548 -20.9665 -57.8017 37.1247 15.3383 13.577 -3.58796 -35.0201 1.41885 -0.655205 -4.23189 6.36111e-015 1.59028e-015 1.59028e-015 3.18055e-015 1.59028e-015 4.77083e-015 29.0099 0.836418 1.81469 24.0779 -31.0828 -32.2187 10.7378 -4.89676 79.4046 -6.95077 3.36484 -24.9742 3.57812e-015 9.54166e-015 -5.56597e-015 3.97569e-015 6.36111e-015 -7.95139e-015 -5.53863 -2.62275 6.73125 
8.59281 92.6448 -7.83171 -2.74495 -4.39233 -11.0747 0.713308 1.43542 -1.68531 8.24704 -9.43862 9.87678 -3.38202 31.626 0.432629 -0.507325 -17.5457 8.6961 -1.17416 -9.56057 3.4596 -5.78733 -12.2551 2.2787 -3.37774 28.2631 9.01659 1.76012 -13.7517 -2.85514 -0.450747 -11.5663 -0.371456 0.929297 2.85707 -3.38661 0.929297 2.85707 -3.38646 1.86448 0.745822 5.0622 -25.452 7.61071 -20.7285 -58.4121 39.1554 17.7136 13.9986 -3.96349 -34.7297 -0.299306 -0.751954 -3.94406 -6.36111e-015 -7.95139e-016 -7.95139e-016 -6.36111e-015 -1.59028e-015 -7.95139e-016 28.9191 0.604574 2.07048 11.9943 -43.8332 -37.3246 7.40415 6.24662 90.902 -7.34682 4.73739 -22.7882 -6.36111e-015 -3.18055e-015 2.38542e-015 -3.18055e-015 0 2.38542e-015 -5.37511 -2.68918 6.64255 
9.07798 91.7019 -7.63517 -3.33876 -4.88566 -11.3105 0.676127 1.61585 -1.57604 9.24624 -10.7013 8.75997 -5.52033 35.5868 2.37233 0.499112 -19.8519 8.85494 -1.30398 -9.57588 3.61121 -5.93734 -13.4748 2.64279 -2.57975 31.728 8.74604 1.24376 -15.5111 -2.7462 -0.155888 -11.6165 -0.539734 0.862676 3.21986 -3.1604 0.862674 3.21985 -3.16038 1.55555 0.421093 4.99655 -25.5651 7.86661 -20.2232 -57.687 40.3819 19.0154 14.5075 -3.53811 -34.6162 -1.57561 -0.789022 -3.03635 3.18055e-015 -7.95139e-016 1.98785e-015 -0 0 1.59028e-015 28.7469 1.11637 2.60386 3.86441 -51.3065 -38.1355 1.76943 8.79238 100.586 -9.16536 6.10771 -20.2671 -3.18055e-015 -3.18055e-015 7.95139e-016 -3.18055e-015 0 -0 -5.56645 -2.20538 6.53086 
9.47659 90.3706 -7.54507 -3.86239 -5.1744 -10.3034 0.490692 1.76995 -1.39186 10.1599 -13.1305 9.16453 -5.60678 40.9122 0.652875 1.84598 -22.4947 9.58544 -1.65964 -9.65387 3.77648 -6.15071 -15.1921 3.39099 -0.570273 36.3704 7.32867 0.0735856 -18.0115 -3.62753 0.305489 -11.6599 -0.887262 0.485439 3.53384 -2.78286 0.485441 3.53381 -2.78287 1.79338 0.259757 4.78614 -25.1416 7.78123 -20.0473 -56.6249 41.2678 19.1908 14.8505 -2.63189 -34.0419 -2.09213 -0.695701 -2.52166 -6.36111e-015 0 -2.78299e-015 -3.18055e-015 0 -3.57812e-015 26.8656 1.52243 3.21707 0.809372 -57.3243 -34.461 -7.13424 6.78811 107.303 -15.5976 9.80959 -15.5057 6.36111e-015 -3.18055e-015 -7.95139e-015 4.77083e-015 -3.18056e-015 -4.77083e-015 -5.84014 -1.94531 6.45745 
9.84847 88.8781 -7.5265 -3.89138 -5.21653 -7.669 0.180525 1.84023 -1.18522 10.7076 -16.2456 6.75881 -7.66645 45.8458 2.06045 2.92763 -24.7747 9.43749 -1.71382 -9.69452 3.77083 -7.06046 -16.8662 2.56486 1.63202 41.1829 5.17164 -0.787336 -21.0133 -4.07345 0.676452 -11.666 -1.29804 -0.073649 3.68124 -2.36533 -0.0736515 3.68124 -2.36534 2.11783 0.455183 4.17027 -25.9116 7.48223 -19.6198 -53.5848 42.9226 18.5221 15.1886 -1.59697 -33.4078 -2.37355 -0.729288 -2.55941 3.18055e-015 1.59028e-015 -1.98785e-015 -3.18055e-015 1.59028e-015 -1.98785e-015 24.582 1.72166 4.28085 0.546753 -62.2045 -28.31 -15.8867 2.75375 110.305 -21.6545 9.38444 -10.6159 1.59028e-015 3.18055e-015 2.38542e-015 -4.41391e-032 -3.18056e-015 -7.95139e-016 -6.19698 -1.91225 6.02773 
